<svg width="38" height="38" viewBox="0 0 38 38" fill="none" xmlns="http://www.w3.org/2000/svg">
<path d="M19 8.99992V35.6666M19 8.99992H13.1071C12.2389 8.99992 11.4062 8.64873 10.7922 8.02361C10.1782 7.39849 9.83333 6.55064 9.83333 5.66659C9.83333 4.78253 10.1782 3.93468 10.7922 3.30956C11.4062 2.68444 12.2389 2.33325 13.1071 2.33325C17.6905 2.33325 19 8.99992 19 8.99992ZM19 8.99992H24.8929C25.7611 8.99992 26.5938 8.64873 27.2078 8.02361C27.8217 7.39849 28.1667 6.55064 28.1667 5.66659C28.1667 4.78253 27.8217 3.93468 27.2078 3.30956C26.5938 2.68444 25.7611 2.33325 24.8929 2.33325C20.3095 2.33325 19 8.99992 19 8.99992ZM32.3333 17.3333V30.3333C32.3333 32.2001 32.3333 33.1335 31.97 33.8466C31.6504 34.4738 31.1405 34.9837 30.5133 35.3033C29.8003 35.6666 28.8668 35.6666 27 35.6666L11 35.6666C9.13315 35.6666 8.19973 35.6666 7.48669 35.3033C6.85949 34.9837 6.34955 34.4738 6.02997 33.8466C5.66666 33.1335 5.66666 32.2001 5.66666 30.3333V17.3333M2.33333 11.6666L2.33333 14.6666C2.33333 15.6 2.33333 16.0667 2.51498 16.4232C2.67477 16.7368 2.92974 16.9918 3.24334 17.1516C3.59986 17.3333 4.06657 17.3333 5 17.3333L33 17.3333C33.9334 17.3333 34.4001 17.3333 34.7566 17.1516C35.0703 16.9918 35.3252 16.7368 35.485 16.4232C35.6667 16.0667 35.6667 15.6 35.6667 14.6666V11.6666C35.6667 10.7332 35.6667 10.2665 35.485 9.90994C35.3252 9.59633 35.0703 9.34136 34.7566 9.18158C34.4001 8.99992 33.9334 8.99992 33 8.99992L5 8.99992C4.06657 8.99992 3.59986 8.99992 3.24334 9.18157C2.92974 9.34136 2.67477 9.59633 2.51498 9.90993C2.33333 10.2665 2.33333 10.7332 2.33333 11.6666Z" stroke="#43A548" stroke-width="3" stroke-linecap="round" stroke-linejoin="round"/>
</svg>
